<svg xmlns="http://www.w3.org/2000/svg" id="Calque_1" data-name="Calque 1" viewBox="0 0 250 254.05"><defs><style> .cls-1 { fill: #3b4394; } .cls-1, .cls-2 { stroke-width: 0px; } .cls-2 { fill: #e4003a; } </style></defs><polygon class="cls-2" points="125 227.37 230.83 80.04 250 80.04 125 254.05 0 80.04 19.18 80.04 125.01 227.37 125 227.37"/><polygon class="cls-2" points="154.15 80.04 124.99 120.64 95.83 80.04 76.66 80.04 124.99 147.32 173.32 80.04 154.15 80.04"/><polygon class="cls-2" points="192.49 80.04 125 174 57.51 80.04 38.34 80.04 125 200.68 211.66 80.04 192.49 80.04"/><polygon class="cls-1" points="124.99 147.32 230.82 0 249.99 0 125 174 0 0 19.17 0 125 147.32 124.99 147.32"/><polygon class="cls-1" points="154.14 0 124.98 40.59 95.82 0 76.65 0 124.98 67.28 173.31 0 154.14 0"/><polygon class="cls-1" points="192.48 0 124.99 93.96 57.5 0 38.33 0 124.99 120.64 211.65 0 192.48 0"/></svg>