<?xml version="1.0" standalone="no"?>
<!DOCTYPE svg PUBLIC "-//W3C//DTD SVG 20010904//EN"
 "http://www.w3.org/TR/2001/REC-SVG-20010904/DTD/svg10.dtd">
<svg version="1.0" xmlns="http://www.w3.org/2000/svg"
 width="225.000000pt" height="225.000000pt" viewBox="0 0 225.000000 225.000000"
 preserveAspectRatio="xMidYMid meet">

<g transform="translate(0.000000,225.000000) scale(0.100000,-0.100000)"
fill="#000000" stroke="none">
<path d="M630 1710 c0 -57 3 -68 15 -64 8 3 17 14 20 23 3 10 13 26 23 37 9
10 25 31 35 47 l17 27 -55 0 -55 0 0 -70z"/>
<path d="M781 1748 c-11 -18 -28 -42 -38 -53 -10 -11 -28 -36 -40 -55 -12 -19
-34 -48 -48 -64 -21 -25 -25 -39 -25 -93 0 -34 3 -63 8 -63 4 0 16 14 27 30
11 16 23 30 28 30 4 0 7 5 7 11 0 6 6 16 13 23 6 8 19 24 27 36 8 12 21 28 28
36 6 7 12 16 12 21 0 4 10 20 23 33 20 23 74 98 91 128 5 9 -6 12 -43 12 -45
0 -51 -3 -70 -32z"/>
<path d="M944 1743 c-15 -21 -32 -39 -36 -41 -4 -2 -8 -8 -8 -14 0 -9 -13 -26
-75 -106 -5 -7 -16 -19 -22 -27 -7 -7 -13 -18 -13 -23 0 -6 -3 -12 -7 -14 -5
-1 -24 -25 -43 -53 -33 -48 -42 -61 -65 -88 -35 -42 -45 -70 -45 -127 0 -33 4
-60 8 -60 4 0 15 12 24 28 10 15 28 40 43 56 14 16 25 32 25 36 0 3 8 15 18
26 9 11 33 42 52 69 44 63 43 63 80 106 16 20 30 41 30 45 0 5 10 20 23 34 12
14 32 41 44 60 12 19 30 44 40 55 10 11 26 32 36 48 l17 27 -49 0 c-45 0 -51
-3 -77 -37z"/>
<path d="M1217 1753 c10 -16 28 -39 40 -53 13 -14 23 -29 23 -33 0 -5 6 -14
13 -21 6 -8 19 -24 27 -36 8 -12 20 -28 25 -34 6 -6 43 -56 82 -111 40 -55 76
-105 81 -110 5 -6 17 -24 28 -40 10 -17 21 -32 25 -35 3 -3 20 -24 36 -47 34
-47 45 -44 56 15 5 26 1 42 -21 75 -15 23 -30 44 -33 47 -6 5 -129 175 -159
220 -8 12 -27 36 -42 54 -15 17 -28 36 -28 41 0 6 -17 29 -38 53 -34 38 -41
42 -85 42 l-47 0 17 -27z"/>
<path d="M1112 1744 c-12 -16 -50 -67 -84 -114 -33 -46 -67 -91 -75 -98 -7 -7
-13 -17 -13 -21 0 -4 -8 -16 -17 -27 -10 -10 -29 -36 -43 -56 -14 -21 -28 -38
-32 -38 -5 0 -8 -6 -8 -14 0 -8 -3 -16 -7 -18 -5 -1 -26 -29 -47 -60 -21 -32
-46 -65 -55 -75 -9 -10 -32 -41 -51 -68 -19 -28 -38 -51 -42 -53 -4 -2 -8 -36
-8 -75 l1 -72 22 26 c35 42 50 62 77 102 14 20 28 37 33 37 4 0 7 5 7 11 0 6
6 17 13 24 22 25 32 39 54 75 12 19 34 49 47 65 35 41 38 46 60 80 11 16 23
34 28 40 19 23 66 87 108 149 43 63 70 82 70 51 0 -8 4 -15 8 -15 4 0 19 -18
32 -40 14 -22 28 -40 33 -40 4 0 7 -7 7 -15 0 -8 3 -15 8 -15 4 0 18 -17 32
-38 14 -20 33 -46 43 -56 9 -11 17 -23 17 -27 0 -4 6 -14 13 -21 30 -31 77
-97 77 -107 0 -6 3 -11 8 -11 4 0 18 -17 32 -38 14 -20 33 -46 42 -56 10 -11
20 -27 23 -37 10 -30 33 -30 55 0 29 41 29 40 -38 119 -12 15 -33 43 -45 62
-12 19 -32 46 -44 60 -13 14 -23 30 -23 37 0 7 -3 13 -7 13 -5 0 -19 17 -33
38 -14 20 -33 46 -42 56 -10 11 -18 23 -18 26 0 6 -12 22 -50 67 -5 7 -10 17
-10 23 0 5 -4 10 -9 10 -5 0 -20 17 -32 38 -13 20 -31 46 -41 57 -9 11 -25 31
-35 44 l-19 23 -22 -28z"/>
<path d="M1401 1728 c6 -12 22 -33 35 -47 13 -14 24 -29 24 -32 0 -3 8 -15 18
-26 9 -11 40 -53 67 -92 28 -40 62 -87 77 -104 15 -18 28 -35 28 -39 0 -5 4
-8 9 -8 9 0 9 9 -5 75 -7 34 -53 134 -70 151 -6 7 -22 26 -37 44 -25 29 -130
100 -149 100 -5 0 -3 -10 3 -22z"/>
<path d="M1108 1511 c-13 -15 -33 -41 -43 -59 -11 -18 -23 -32 -26 -32 -4 0
-10 -8 -13 -17 -3 -10 -16 -29 -29 -43 -12 -14 -32 -41 -44 -60 -12 -19 -34
-48 -48 -64 -14 -16 -25 -32 -25 -36 0 -3 -8 -15 -17 -26 -10 -10 -29 -36 -43
-56 -14 -21 -28 -38 -32 -38 -5 0 -8 -7 -8 -15 0 -8 -3 -15 -7 -15 -5 0 -19
-18 -33 -40 -13 -22 -28 -40 -32 -40 -4 0 -8 -6 -8 -13 0 -7 -11 -24 -24 -38
-38 -41 -46 -64 -46 -131 l0 -63 23 25 c12 14 32 41 44 60 19 31 32 47 83 107
5 7 10 16 10 20 0 5 10 19 23 33 12 14 40 51 61 82 21 32 46 65 55 75 9 10 26
34 38 53 12 19 33 47 45 62 13 16 43 57 68 93 40 57 70 82 70 57 0 -5 11 -22
25 -38 14 -16 42 -54 63 -84 20 -30 40 -56 45 -58 4 -2 7 -10 7 -18 0 -8 3
-14 8 -14 4 0 18 -17 32 -38 14 -20 33 -46 43 -56 9 -11 17 -23 17 -27 0 -3
13 -21 29 -39 l28 -33 32 22 c34 25 33 32 -22 101 -35 44 -36 45 -77 105 -19
27 -43 58 -52 69 -10 11 -18 23 -18 27 0 3 -13 22 -30 40 -16 19 -30 37 -30
40 0 3 -11 18 -23 33 -13 15 -35 45 -48 66 -31 51 -42 54 -71 21z"/>
<path d="M1117 1298 c-9 -13 -31 -43 -49 -68 -17 -24 -35 -49 -40 -55 -4 -5
-29 -39 -55 -75 -25 -36 -50 -66 -55 -68 -4 -2 -8 -8 -8 -14 0 -11 -60 -91
-72 -96 -5 -2 -8 -8 -8 -14 0 -9 -13 -26 -75 -106 -5 -7 -16 -19 -22 -27 -7
-7 -13 -16 -13 -19 0 -3 -20 -33 -45 -67 -41 -56 -45 -66 -45 -120 0 -33 4
-59 10 -59 6 0 10 3 10 8 0 4 10 18 23 32 12 14 32 41 44 60 12 19 30 44 40
55 10 11 29 37 43 57 14 21 28 38 33 38 4 0 7 6 7 13 0 7 10 23 23 37 12 14
32 41 44 60 12 19 30 44 40 55 10 11 35 45 55 75 21 30 50 69 64 85 14 17 32
42 40 58 22 41 33 37 85 -38 18 -27 37 -51 42 -53 4 -2 7 -8 7 -13 0 -6 9 -19
20 -31 11 -12 32 -40 47 -62 16 -23 31 -42 36 -44 4 -2 7 -8 7 -14 0 -5 6 -15
13 -22 6 -8 19 -24 27 -36 8 -12 21 -28 28 -36 6 -7 12 -17 12 -23 0 -6 3 -11
8 -11 4 0 18 -17 32 -37 14 -21 33 -47 43 -59 10 -11 39 -52 65 -90 47 -67 49
-69 95 -72 26 -2 47 0 47 4 0 10 -42 76 -63 99 -10 11 -28 36 -40 55 -11 19
-24 37 -28 40 -6 5 -41 54 -87 120 -9 14 -25 34 -35 45 -10 11 -28 36 -40 55
-12 19 -32 46 -44 60 -13 14 -23 30 -23 37 0 7 -3 13 -7 13 -5 0 -19 17 -33
38 -14 20 -27 39 -30 42 -4 3 -22 27 -41 55 -18 27 -42 58 -51 69 -10 11 -18
23 -18 26 0 4 -10 19 -23 34 l-23 27 -17 -23z"/>
<path d="M1101 1046 c-17 -25 -37 -51 -44 -58 -8 -7 -25 -32 -40 -54 -14 -22
-31 -47 -39 -55 -8 -8 -24 -30 -35 -49 -19 -31 -32 -47 -83 -107 -5 -7 -10
-15 -10 -18 0 -3 -5 -11 -10 -18 -21 -24 -130 -177 -130 -182 0 -11 92 -4 104
7 6 7 21 29 33 48 12 19 30 44 40 55 10 11 26 31 35 45 10 14 35 50 57 80 22
30 54 74 71 98 16 23 34 48 40 55 5 6 18 23 29 36 l18 25 19 -30 c10 -16 29
-40 41 -54 13 -14 23 -30 23 -37 0 -7 4 -13 8 -13 4 0 19 -18 32 -40 14 -22
28 -40 33 -40 4 0 7 -6 7 -14 0 -8 4 -16 8 -18 13 -5 102 -126 102 -137 0 -6
3 -11 8 -11 4 0 16 -14 27 -30 18 -26 26 -30 68 -30 26 0 47 4 47 8 0 5 -11
22 -25 38 -14 16 -36 45 -48 64 -12 19 -29 43 -38 53 -9 10 -34 43 -55 75 -21
31 -42 58 -46 60 -5 2 -8 10 -8 18 0 8 -3 14 -7 14 -5 0 -19 17 -33 38 -14 20
-35 48 -47 62 -13 14 -23 30 -23 37 0 7 -3 13 -7 13 -5 0 -26 25 -47 55 -22
30 -41 55 -42 55 -2 0 -17 -20 -33 -44z"/>
<path d="M1112 835 c-12 -14 -22 -28 -22 -31 0 -6 -55 -79 -77 -102 -7 -7 -13
-16 -13 -20 0 -4 -11 -20 -25 -36 -14 -16 -25 -32 -25 -35 0 -3 -10 -18 -22
-32 -23 -25 -48 -64 -48 -74 0 -3 20 -5 44 -5 40 0 48 4 73 38 15 20 30 39 33
42 3 3 16 22 30 42 14 21 28 38 33 38 4 0 7 6 7 13 0 8 8 21 18 30 21 19 22
18 82 -68 19 -27 45 -61 58 -75 12 -13 22 -30 22 -36 0 -7 7 -15 16 -18 19 -7
94 -8 94 -1 0 9 -52 88 -72 109 -11 12 -29 37 -41 56 -22 37 -25 40 -58 80
-12 14 -34 44 -51 68 -16 23 -30 42 -32 42 -1 0 -12 -11 -24 -25z"/>
<path d="M1116 608 c-55 -77 -66 -93 -66 -100 0 -4 38 -8 85 -8 69 0 85 3 85
15 0 8 -3 15 -7 15 -5 0 -23 23 -42 50 -19 28 -35 50 -36 50 -1 0 -10 -10 -19
-22z"/>
</g>
</svg>
